<?xml version="1.0" encoding="utf-8"?>
<!-- Generator: Adobe Illustrator 19.1.0, SVG Export Plug-In . SVG Version: 6.00 Build 0)  -->
<svg version="1.1" id="Layer_1" xmlns="http://www.w3.org/2000/svg" xmlns:xlink="http://www.w3.org/1999/xlink" x="0px" y="0px"
	 viewBox="0 0 32 32" style="enable-background:new 0 0 32 32;" xml:space="preserve"  width="16px" height="16px">
<style type="text/css">
	.st0{fill:#0B55A8;}
</style>
<g>
	<g>
		<path class="st0" d="M29.5,3.2H2.5C1.1,3.2,0,4.3,0,5.7v19.7c0,1.4,1.1,2.5,2.5,2.5h27.1c1.4,0,2.5-1.1,2.5-2.5V5.7
			C32,4.3,30.9,3.2,29.5,3.2z M9.8,18.5l3.5,3.5c0.7,0.7,1.7,1.1,2.6,1.1c0.9,0,1.9-0.4,2.6-1.1l3.5-3.5l6.9,6.9H3L9.8,18.5z
			 M2.5,22.4V11.1l5.6,5.6L2.5,22.4z M23.9,16.7l5.6-5.6v11.3L23.9,16.7z M29.5,5.7v2L16.9,20.3c-0.5,0.5-1.3,0.5-1.7,0L2.5,7.6v-2
			H29.5z"/>
	</g>
</g>
</svg>
